ply
format ascii 1.0
comment metarep (UNSM) - mario_h_cap3
element vertex 18
property short x
property short y
property short z
property float s
property float t
property float nx
property float ny
property float nz
property uchar alpha
element face 16
property list uchar uint vertex_indices
end_header
77 108 34 0.349609375 0.625 0.109375 0.171875 0.96875 255
92 88 84 0.892578125 1.001953125 0.2734375 0.6953125 0.6484375 255
97 103 25 0.234375 0.841796875 0.5 0.703125 0.4765625 255
48 94 76 0.8828125 0.43359375 -0.3203125 0.75 0.5546875 255
52 111 31 0.361328125 0.310546875 -0.6875 0.3984375 0.5859375 255
27 100 30 0.447265625 0.025390625 -0.6171875 0.75 0.171875 255
41 109 0 0.083984375 0.08203125 -0.8359375 0.53125 0.0 255
44 44 97 1.28125 0.556640625 -0.296875 0.2578125 0.90625 255
3 54 52 0.88671875 -0.080078125 -0.8359375 0.2265625 0.46875 255
52 111 -30 0.34765625 0.31640625 -0.6875 0.390625 -0.5859375 255
48 94 -75 0.8515625 0.390625 -0.3203125 0.75 -0.5546875 255
27 100 -29 0.400390625 0.009765625 -0.6171875 0.75 -0.171875 255
3 54 -51 0.802734375 -0.150390625 -0.8359375 0.2265625 -0.46875 255
44 44 -96 1.236328125 0.478515625 -0.296875 0.2578125 -0.90625 255
77 108 -33 0.369140625 0.6484375 0.109375 0.171875 -0.96875 255
41 109 0 0.064453125 0.10546875 -0.8359375 0.53125 0.0 255
92 88 -83 0.916015625 0.98828125 0.2734375 0.6953125 -0.6484375 255
97 103 -24 0.283203125 0.88671875 0.5 0.703125 -0.4765625 255
3 0 1 2
3 1 0 3
3 0 4 3
3 5 3 4
3 5 4 6
3 7 3 8
3 8 3 5
3 3 7 1
3 9 10 11
3 12 10 13
3 11 10 12
3 10 9 14
3 15 9 11
3 10 14 16
3 16 14 17
3 16 13 10
