ply
format ascii 1.0
comment metarep (UNSM) - mario_h_cap6
element vertex 19
property short x
property short y
property short z
property float nx
property float ny
property float nz
property uchar alpha
element face 27
property list uchar uint vertex_indices
end_header
31 -84 0 -0.75 -0.640625 0.0 255
36 -116 -35 -0.0390625 -0.890625 0.4296875 255
64 -103 -51 -0.265625 -0.84375 -0.4453125 255
31 -85 87 -0.2890625 -0.0234375 0.9453125 255
35 -120 68 -0.296875 -0.84375 0.4140625 255
58 -114 60 0.6796875 -0.59375 0.390625 255
64 -103 52 -0.4296875 -0.796875 0.3828125 255
56 -45 77 -0.2265625 -0.421875 0.859375 255
36 -116 36 -0.0390625 -0.890625 -0.4296875 255
91 -54 86 -0.3046875 -0.6328125 0.6953125 255
17 -52 47 -0.9296875 -0.0625 0.3203125 255
35 -120 -67 -0.296875 -0.84375 -0.4140625 255
58 -114 -59 0.6796875 -0.59375 -0.390625 255
31 -85 -86 -0.2890625 -0.0234375 -0.9453125 255
56 -45 -76 -0.2265625 -0.421875 -0.859375 255
17 -52 -46 -0.9296875 -0.0625 -0.3203125 255
9 -88 -58 -0.9453125 -0.2578125 -0.0859375 255
91 -54 -85 -0.3046875 -0.625 -0.6953125 255
9 -88 59 -0.9453125 -0.2578125 0.0859375 255
3 0 1 2
3 3 4 5
3 5 6 7
3 5 8 6
3 5 4 8
3 7 3 5
3 0 2 6
3 6 9 7
3 0 6 8
3 3 7 10
3 1 11 12
3 12 13 14
3 11 13 12
3 1 12 2
3 14 2 12
3 15 14 13
3 13 11 16
3 13 16 15
3 14 17 2
3 0 15 16
3 0 8 18
3 18 10 0
3 16 11 1
3 16 1 0
3 18 4 3
3 10 18 3
3 8 4 18
