ply
format ascii 1.0
comment metarep (UNSM) - mario_h_cap4
element vertex 60
property short x
property short y
property short z
property float s
property float t
property float nx
property float ny
property float nz
property uchar alpha
element face 80
property list uchar uint vertex_indices
end_header
41 109 0 0.015625 0.984375 -0.8359375 0.53125 0.0 255
27 100 -29 0.015625 0.984375 -0.6171875 0.75 -0.171875 255
27 100 30 0.015625 0.984375 -0.6171875 0.75 0.171875 255
-7 62 0 0.015625 0.984375 -0.9609375 0.2265625 0.0 255
3 54 52 0.015625 0.984375 -0.8359375 0.2265625 0.46875 255
3 54 -51 0.015625 0.984375 -0.8359375 0.2265625 -0.46875 255
17 -52 -46 0.015625 0.984375 -0.9296875 -0.0625 -0.3203125 255
17 -52 47 0.015625 0.984375 -0.9296875 -0.0625 0.3203125 255
42 0 103 0.015625 0.984375 -0.4765625 0.0390625 0.859375 255
44 44 97 0.015625 0.984375 -0.296875 0.2578125 0.90625 255
42 0 -102 0.015625 0.984375 -0.4765625 0.0390625 -0.859375 255
44 44 -96 0.015625 0.984375 -0.296875 0.2578125 -0.90625 255
64 -25 135 0.015625 0.984375 -0.40625 -0.2109375 0.875 255
91 -54 86 0.015625 0.984375 -0.3046875 -0.6328125 0.6953125 255
102 -33 135 0.015625 0.984375 0.375 0.1875 0.890625 255
102 -33 -134 0.015625 0.984375 0.390625 0.1953125 -0.8828125 255
120 -12 -109 0.015625 0.984375 -0.1484375 0.28125 -0.9375 255
91 -54 -85 0.015625 0.984375 -0.3046875 -0.625 -0.6953125 255
56 -45 77 0.015625 0.984375 -0.2265625 -0.421875 0.859375 255
120 -11 111 0.015625 0.984375 -0.1484375 0.28125 0.9375 255
85 -23 111 0.015625 0.984375 0.03125 0.6875 0.703125 255
85 -23 -110 0.015625 0.984375 0.046875 0.6953125 -0.703125 255
64 -25 -134 0.015625 0.984375 -0.40625 -0.2109375 -0.875 255
33 165 0 0.015625 0.984375 -0.8828125 0.4375 0.0703125 255
52 164 -40 0.015625 0.984375 -0.5625 0.40625 -0.703125 255
32 132 0 0.015625 0.984375 -0.96875 -0.1875 -0.0625 255
56 -45 -76 0.015625 0.984375 -0.2265625 -0.421875 -0.859375 255
47 131 41 0.015625 0.984375 -0.625 -0.21875 0.734375 255
52 111 31 0.015625 0.984375 -0.6875 0.3984375 0.5859375 255
52 111 -30 0.015625 0.984375 -0.6875 0.390625 -0.5859375 255
77 108 34 0.015625 0.984375 0.109375 0.171875 0.96875 255
92 88 84 0.015625 0.984375 0.2734375 0.6953125 0.6484375 255
104 87 70 0.015625 0.984375 0.375 0.71875 0.5703125 255
97 103 25 0.015625 0.984375 0.5 0.703125 0.4765625 255
117 128 0 0.015625 0.984375 0.953125 -0.2421875 0.046875 255
102 129 41 0.015625 0.984375 0.5390625 -0.328125 0.7578125 255
108 105 0 0.015625 0.984375 0.8203125 0.546875 0.0 255
97 103 -24 0.015625 0.984375 0.5 0.703125 -0.4765625 255
119 161 0 0.015625 0.984375 0.9453125 0.2734375 -0.078125 255
104 162 41 0.015625 0.984375 0.640625 0.3046875 0.6875 255
102 129 -40 0.015625 0.984375 0.625 -0.28125 -0.703125 255
75 130 46 0.015625 0.984375 0.0 -0.15625 0.9765625 255
78 163 46 0.015625 0.984375 0.0234375 0.6640625 0.7265625 255
101 179 0 0.015625 0.984375 0.3046875 0.9375 0.0 255
52 164 41 0.015625 0.984375 -0.4375 0.4765625 0.7421875 255
60 181 0 0.015625 0.984375 -0.171875 0.96875 0.0 255
96 49 94 0.015625 0.984375 0.125 0.3125 0.9296875 255
153 33 95 0.015625 0.984375 0.03125 0.546875 0.8203125 255
144 83 67 0.015625 0.984375 0.1953125 0.7109375 0.6484375 255
31 -84 0 0.015625 0.984375 -0.75 -0.640625 0.0 255
144 83 -66 0.015625 0.984375 0.1953125 0.7109375 -0.6484375 255
153 33 -94 0.015625 0.984375 0.0234375 0.546875 -0.8203125 255
96 49 -93 0.015625 0.984375 0.1328125 0.3046875 -0.9296875 255
92 88 -83 0.015625 0.984375 0.2734375 0.6953125 -0.6484375 255
104 87 -69 0.015625 0.984375 0.375 0.71875 -0.5703125 255
75 130 -45 0.015625 0.984375 0.0 -0.15625 -0.9765625 255
78 163 -45 0.015625 0.984375 0.0234375 0.65625 -0.734375 255
104 162 -40 0.015625 0.984375 0.53125 0.3828125 -0.7421875 255
47 131 -40 0.015625 0.984375 -0.53125 -0.265625 -0.78125 255
77 108 -33 0.015625 0.984375 0.109375 0.171875 -0.96875 255
3 0 1 2
3 2 1 3
3 3 4 2
3 1 5 3
3 6 7 3
3 7 4 3
3 6 3 5
3 4 7 8
3 9 4 8
3 10 6 5
3 10 5 11
3 12 13 14
3 15 16 17
3 12 18 13
3 19 20 14
3 13 19 14
3 12 14 20
3 8 12 20
3 12 8 18
3 21 22 10
3 15 21 16
3 21 15 22
3 22 15 17
3 23 24 25
3 26 22 17
3 10 22 26
3 7 18 8
3 10 26 6
3 25 27 23
3 28 27 25
3 29 0 25
3 25 0 28
3 27 28 30
3 31 32 33
3 34 35 33
3 30 33 35
3 33 36 34
3 34 36 37
3 38 39 34
3 39 35 34
3 37 40 34
3 34 40 38
3 41 35 39
3 42 41 39
3 43 39 38
3 39 43 42
3 35 41 30
3 44 27 41
3 27 44 23
3 41 27 30
3 44 42 45
3 44 41 42
3 23 44 45
3 23 45 24
3 46 47 48
3 45 42 43
3 32 31 46
3 48 32 46
3 9 46 31
3 6 49 7
3 50 51 52
3 52 53 54
3 53 52 11
3 52 54 50
3 55 56 57
3 53 37 54
3 24 56 55
3 58 24 55
3 45 56 24
3 24 58 25
3 59 29 58
3 58 55 59
3 25 58 29
3 55 57 40
3 40 57 38
3 40 37 59
3 55 40 59
3 56 45 43
3 43 57 56
3 43 38 57
