ply
format ascii 1.0
comment metarep (UNSM) - mario_h_cap5
element vertex 30
property short x
property short y
property short z
property float nx
property float ny
property float nz
property uchar alpha
element face 43
property list uchar uint vertex_indices
end_header
164 -89 -74 0.6328125 -0.6796875 -0.3359375 255
122 -139 -48 0.3125 -0.84375 -0.3984375 255
131 -56 -123 -0.265625 -0.34375 -0.8828125 255
187 -6 -133 0.234375 0.03125 -0.9609375 255
120 -12 -109 -0.1484375 0.28125 -0.9375 255
91 -54 -85 -0.3046875 -0.625 -0.6953125 255
77 -138 -50 -0.53125 -0.765625 -0.3125 255
64 -103 -51 -0.265625 -0.84375 -0.4453125 255
122 -139 49 0.3515625 -0.8828125 0.265625 255
77 -138 51 -0.4921875 -0.71875 0.46875 255
64 -103 52 -0.4296875 -0.796875 0.3828125 255
131 -56 124 -0.2578125 -0.3515625 0.8828125 255
164 -89 75 0.609375 -0.703125 0.3359375 255
91 -54 86 -0.3046875 -0.6328125 0.6953125 255
187 -6 134 0.2421875 0.03125 0.953125 255
120 -11 111 -0.1484375 0.28125 0.9375 255
153 33 -94 0.0234375 0.546875 -0.8203125 255
175 91 -38 -0.453125 0.8515625 -0.1953125 255
173 132 -65 -0.296875 0.703125 -0.625 255
195 93 -31 0.6328125 0.65625 -0.3828125 255
252 62 -69 0.4453125 0.578125 -0.6640625 255
271 0 -41 0.859375 -0.3828125 -0.28125 255
153 33 95 0.03125 0.546875 0.8203125 255
252 62 70 0.4453125 0.578125 0.6640625 255
271 0 42 0.8828125 -0.28125 0.3359375 255
195 93 32 0.6328125 0.65625 0.375 255
173 132 66 -0.296875 0.703125 0.625 255
175 91 39 -0.453125 0.8515625 0.1953125 255
272 85 0 0.7421875 0.65625 0.0 255
182 155 0 -0.1484375 0.9765625 0.0 255
3 0 1 2
3 3 2 4
3 4 2 5
3 3 0 2
3 2 1 6
3 6 7 2
3 5 2 7
3 6 1 8
3 8 1 0
3 6 8 9
3 10 7 6
3 9 10 6
3 11 10 9
3 9 8 11
3 11 8 12
3 0 12 8
3 13 10 11
3 11 12 14
3 15 11 14
3 13 11 15
3 16 3 4
3 17 18 16
3 18 19 16
3 16 20 3
3 0 3 21
3 21 3 20
3 14 22 15
3 14 23 22
3 23 14 24
3 24 14 12
3 25 26 22
3 22 26 27
3 0 21 12
3 21 24 12
3 20 28 21
3 25 29 26
3 26 29 27
3 19 29 25
3 17 27 29
3 17 29 18
3 18 29 19
3 21 28 24
3 24 28 23
