ply
format ascii 1.0
comment metarep (UNSM) - mario_h_cap0
element vertex 7
property short x
property short y
property short z
property float s
property float t
property float nx
property float ny
property float nz
property uchar alpha
element face 5
property list uchar uint vertex_indices
end_header
195 93 32 0.7421875 0.26953125 0.6328125 0.65625 0.375 255
153 33 95 1.236328125 -0.056640625 0.03125 0.546875 0.8203125 255
252 62 70 1.0234375 0.8359375 0.4453125 0.578125 0.6640625 255
272 85 0 0.4765625 1.0 0.7421875 0.65625 0.0 255
252 62 -69 -0.060546875 0.830078125 0.4453125 0.578125 -0.6640625 255
195 93 -31 0.2421875 0.265625 0.6328125 0.65625 -0.3828125 255
153 33 -94 -0.236328125 -0.06640625 0.0234375 0.546875 -0.8203125 255
3 0 1 2
3 3 4 5
3 2 3 0
3 3 5 0
3 4 6 5
