ply
format ascii 1.0
comment metarep (UNSM) - mario_h_fistR
element vertex 28
property short x
property short y
property short z
property float nx
property float ny
property float nz
element face 46
property list uchar uint vertex_indices
end_header
35 9 -37 -0.2109375 -0.0859375 -0.9609375
55 -44 -4 0.0 -0.953125 -0.2578125
31 -40 -1 0.5234375 -0.71875 -0.4296875
10 60 -4 -0.65625 0.703125 -0.2109375
-2 41 -1 -0.1484375 0.875 -0.4296875
24 -57 -4 0.8984375 -0.34375 -0.203125
4 -3 -33 0.5625 0.234375 -0.7734375
-19 47 -4 0.375 0.890625 -0.2109375
-14 26 41 -0.1484375 0.4765625 0.8515625
13 -38 41 0.1640625 -0.6015625 0.7578125
23 -26 35 0.03125 -0.4765625 0.859375
24 -57 -4 -0.734375 -0.6328125 -0.1953125
-16 -12 6 -0.90625 -0.3828125 -0.0625
4 -3 -33 -0.7890625 -0.3359375 -0.484375
-19 47 -4 -0.9609375 -0.0859375 -0.1953125
58 81 0 0.15625 0.9609375 -0.1796875
104 -26 1 0.8125 -0.4609375 -0.3203125
75 -33 66 0.0625 -0.6328125 0.75
96 -8 52 0.75 0.046875 0.6328125
57 10 66 -0.0234375 0.21875 0.9609375
97 39 24 0.8359375 0.453125 0.2578125
86 30 -33 0.6171875 0.265625 -0.71875
86 15 52 0.5 0.375 0.7578125
54 54 44 0.25 0.6328125 0.71875
29 62 34 -0.390625 0.59375 0.6796875
29 6 49 -0.484375 -0.046875 0.859375
1 24 35 -0.359375 0.46875 0.7890625
15 0 -23 0.03125 0.0078125 -0.984375
3 0 1 2
3 3 0 4
3 2 5 6
3 6 7 4
3 4 7 8
3 8 9 10
3 9 5 2
3 11 12 13
3 13 12 14
3 14 12 8
3 8 12 9
3 9 12 11
3 3 15 0
3 0 16 1
3 1 16 17
3 17 18 19
3 15 20 21
3 21 20 16
3 16 20 18
3 18 20 22
3 23 20 15
3 22 23 19
3 23 24 19
3 24 25 19
3 16 18 17
3 24 23 15
3 15 3 24
3 20 23 22
3 18 22 19
3 0 21 16
3 15 21 0
3 2 10 9
3 10 26 8
3 8 26 4
3 4 27 6
3 6 27 2
3 0 27 4
3 25 26 10
3 2 27 0
3 1 17 10
3 17 25 10
3 17 19 25
3 10 2 1
3 3 4 26
3 26 25 24
3 24 3 26
