ply
format ascii 1.0
comment metarep (UNSM) - mario_h_fistL
element vertex 28
property short x
property short y
property short z
property float nx
property float ny
property float nz
element face 46
property list uchar uint vertex_indices
end_header
36 6 42 -0.2421875 -0.125 0.9453125
17 -1 27 0.0 -0.0234375 0.9921875
34 -41 3 0.515625 -0.7265625 0.421875
26 -25 -32 0.0703125 -0.4453125 -0.8828125
4 24 -31 -0.3359375 0.4921875 -0.78125
33 7 -44 -0.453125 -0.015625 -0.875
-1 39 5 -0.171875 0.859375 0.453125
5 -6 36 0.53125 0.2109375 0.8046875
-10 26 -38 -0.125 0.5078125 -0.8359375
17 -38 -39 0.203125 -0.5703125 -0.7734375
86 29 41 0.5859375 0.25 0.75
59 81 8 0.1328125 0.953125 0.2265625
107 -26 4 0.8046875 -0.4609375 0.3359375
61 12 -60 0.0 0.2578125 -0.953125
90 17 -46 0.5234375 0.4140625 -0.7265625
100 -6 -46 0.7734375 0.078125 -0.6015625
57 55 -37 0.265625 0.65625 -0.6796875
99 40 -16 0.84375 0.46875 -0.2109375
32 63 -28 -0.375 0.6171875 -0.671875
12 59 10 -0.671875 0.6875 0.2109375
80 -31 -61 0.09375 -0.609375 -0.7734375
58 -45 7 0.0078125 -0.9609375 0.21875
27 -58 6 -0.7265625 -0.6484375 0.140625
-14 -14 -4 -0.90625 -0.3984375 0.015625
-18 45 8 -0.96875 -0.1015625 0.1484375
5 -6 36 -0.8046875 -0.359375 0.4375
27 -58 6 0.8984375 -0.3359375 0.2265625
-18 45 8 0.3515625 0.8828125 0.2578125
3 0 1 2
3 3 4 5
3 6 1 0
3 2 1 7
3 7 1 6
3 6 4 8
3 8 4 3
3 9 3 2
3 0 10 11
3 12 10 0
3 13 14 15
3 14 16 17
3 18 19 11
3 11 16 18
3 20 15 12
3 13 5 18
3 16 14 13
3 13 18 16
3 11 17 16
3 14 17 15
3 15 17 12
3 12 17 10
3 10 17 11
3 13 15 20
3 20 12 21
3 21 12 0
3 0 11 19
3 22 23 9
3 9 23 8
3 8 23 24
3 24 23 25
3 25 23 22
3 2 26 9
3 3 9 8
3 8 27 6
3 6 27 7
3 7 26 2
3 6 0 19
3 2 21 0
3 3 5 20
3 21 2 3
3 5 13 20
3 3 20 21
3 19 18 4
3 4 6 19
3 18 5 4
