ply
format ascii 1.0
comment metarep (UNSM) - mario_h_hair2
element vertex 12
property short x
property short y
property short z
property float s
property float t
property float nx
property float ny
property float nz
property uchar alpha
element face 8
property list uchar uint vertex_indices
end_header
42 0 103 0.9609375 -0.1796875 -0.4765625 0.0390625 0.859375 255
85 -23 111 1.224609375 0.478515625 0.03125 0.6875 0.703125 255
96 49 94 -0.056640625 0.275390625 0.125 0.3125 0.9296875 255
44 44 97 0.20703125 -0.349609375 -0.296875 0.2578125 0.90625 255
153 33 95 0.037109375 1.05078125 0.0390625 0.4375 0.8828125 255
120 -11 111 0.916015625 0.865234375 -0.0078125 0.1484375 0.9765625 255
42 0 -102 0.837890625 -0.197265625 -0.4765625 0.0390625 -0.859375 255
44 44 -96 0.130859375 -0.318359375 -0.296875 0.2578125 -0.90625 255
96 49 -93 -0.052734375 0.30078125 0.1328125 0.3046875 -0.9296875 255
85 -23 -110 1.138671875 0.416015625 0.046875 0.6953125 -0.703125 255
120 -12 -109 0.91015625 0.8046875 -0.0078125 0.1484375 -0.9765625 255
153 33 -94 0.103515625 1.041015625 -0.015625 0.421875 -0.890625 255
3 0 1 2
3 2 3 0
3 4 2 5
3 1 5 2
3 6 7 8
3 8 9 6
3 9 8 10
3 10 8 11
