ply
format ascii 1.0
comment metarep (UNSM) - mario_h_hair3a
element vertex 60
property short x
property short y
property short z
property float nx
property float ny
property float nz
property uchar alpha
element face 80
property list uchar uint vertex_indices
end_header
97 103 25 0.5 0.703125 0.4765625 255
108 105 0 0.8203125 0.546875 0.0 255
117 128 0 0.953125 -0.2421875 0.046875 255
92 88 -83 0.2734375 0.6953125 -0.6484375 255
97 103 -24 0.5 0.703125 -0.4765625 255
104 87 -69 0.375 0.71875 -0.5703125 255
96 49 -93 0.1328125 0.3046875 -0.9296875 255
44 44 -96 -0.296875 0.2578125 -0.90625 255
102 129 -40 0.625 -0.28125 -0.703125 255
77 108 -33 0.109375 0.171875 -0.96875 255
144 83 -66 0.1953125 0.7109375 -0.6484375 255
44 44 97 -0.296875 0.2578125 0.90625 255
96 49 94 0.125 0.3125 0.9296875 255
92 88 84 0.2734375 0.6953125 0.6484375 255
104 87 70 0.375 0.71875 0.5703125 255
-7 62 0 -0.9609375 0.2265625 0.0 255
3 54 52 -0.8359375 0.2265625 0.46875 255
27 100 30 -0.6171875 0.75 0.171875 255
144 83 67 0.1953125 0.7109375 0.6484375 255
102 129 41 0.5390625 -0.328125 0.7578125 255
77 108 34 0.109375 0.171875 0.96875 255
42 0 103 -0.4765625 0.0390625 0.859375 255
17 -52 47 -0.9296875 -0.0625 0.3203125 255
64 -25 135 -0.40625 -0.2109375 0.875 255
56 -45 77 -0.2265625 -0.421875 0.859375 255
85 -23 111 0.03125 0.6875 0.703125 255
153 33 95 0.0390625 0.4375 0.8828125 255
91 -54 86 -0.1796875 -0.6796875 0.6953125 255
102 -33 135 0.375 0.1875 0.890625 255
120 -11 111 -0.0078125 0.1484375 0.9765625 255
52 111 -30 -0.6875 0.390625 -0.5859375 255
41 109 0 -0.8359375 0.53125 0.0 255
32 132 0 -0.96875 -0.1875 -0.0625 255
85 -23 -110 0.046875 0.6953125 -0.703125 255
64 -25 -134 -0.40625 -0.2109375 -0.875 255
42 0 -102 -0.4765625 0.0390625 -0.859375 255
27 100 -29 -0.6171875 0.75 -0.171875 255
3 54 -51 -0.8359375 0.2265625 -0.46875 255
153 33 -94 -0.015625 0.421875 -0.890625 255
102 -33 -134 0.390625 0.1953125 -0.8828125 255
91 -54 -85 -0.1875 -0.671875 -0.6953125 255
120 -12 -109 -0.0078125 0.1484375 -0.9765625 255
33 165 0 -0.8828125 0.4375 0.0703125 255
60 181 0 -0.171875 0.96875 0.0 255
52 164 -40 -0.5625 0.40625 -0.703125 255
56 -45 -76 -0.2265625 -0.421875 -0.859375 255
17 -52 -46 -0.9296875 -0.0625 -0.3203125 255
52 164 41 -0.4375 0.4765625 0.7421875 255
78 163 46 0.0234375 0.6640625 0.7265625 255
101 179 0 0.3046875 0.9375 0.0 255
104 162 41 0.640625 0.3046875 0.6875 255
75 130 46 0.0 -0.15625 0.9765625 255
119 161 0 0.9453125 0.2734375 -0.078125 255
104 162 -40 0.53125 0.3828125 -0.7421875 255
78 163 -45 0.0234375 0.65625 -0.734375 255
47 131 41 -0.625 -0.21875 0.734375 255
52 111 31 -0.6875 0.3984375 0.5859375 255
75 130 -45 0.0 -0.15625 -0.9765625 255
31 -84 0 -0.75 -0.640625 0.0 255
47 131 -40 -0.53125 -0.265625 -0.78125 255
3 0 1 2
3 3 4 5
3 6 3 5
3 3 6 7
3 4 8 2
3 8 4 9
3 2 1 4
3 6 5 10
3 11 12 13
3 14 13 12
3 13 14 0
3 15 16 17
3 18 14 12
3 2 19 0
3 20 0 19
3 11 16 21
3 16 22 21
3 22 16 15
3 23 21 24
3 22 24 21
3 21 23 25
3 12 26 18
3 23 27 28
3 23 24 27
3 23 28 25
3 29 25 28
3 27 29 28
3 30 31 32
3 33 34 35
3 17 36 15
3 36 37 15
3 31 36 17
3 10 38 6
3 35 37 7
3 34 39 40
3 33 39 34
3 39 33 41
3 42 43 44
3 39 41 40
3 45 34 40
3 35 34 45
3 35 46 37
3 35 45 46
3 46 15 37
3 46 22 15
3 42 47 43
3 47 48 43
3 43 48 49
3 50 49 48
3 47 51 48
3 48 51 50
3 49 50 52
3 49 53 54
3 49 52 53
3 54 43 49
3 47 55 51
3 55 47 42
3 51 19 50
3 19 51 20
3 51 55 20
3 42 44 32
3 50 19 2
3 52 50 2
3 32 55 42
3 56 55 32
3 55 56 20
3 44 54 57
3 57 54 53
3 43 54 44
3 46 58 22
3 32 31 56
3 59 44 57
3 57 8 9
3 57 53 8
3 59 57 9
3 8 53 52
3 2 8 52
3 32 59 30
3 9 30 59
3 44 59 32
