ply
format ascii 1.0
comment metarep (UNSM) - mario_h_hair4
element vertex 52
property short x
property short y
property short z
property float nx
property float ny
property float nz
property uchar alpha
element face 86
property list uchar uint vertex_indices
end_header
153 33 -94 -0.015625 0.421875 -0.890625 255
200 70 -97 0.0546875 0.5625 -0.8046875 255
182 -9 -115 0.3671875 -0.015625 -0.9140625 255
153 33 95 0.0390625 0.4375 0.8828125 255
200 75 84 0.125 0.640625 0.7421875 255
151 72 70 -0.21875 0.71875 0.6328125 255
120 -11 111 -0.0078125 0.1484375 0.9765625 255
181 -9 116 0.3515625 0.0078125 0.921875 255
175 91 39 0.0078125 0.9140625 0.3671875 255
209 86 60 0.4375 0.75 0.46875 255
227 35 75 0.8515625 0.140625 0.4765625 255
175 91 -38 -0.0859375 0.8984375 -0.40625 255
151 72 -68 -0.328125 0.7109375 -0.6015625 255
221 35 -73 0.8828125 0.0234375 -0.4375 255
211 91 -71 0.3828125 0.546875 -0.7265625 255
227 -14 -58 0.890625 -0.1171875 -0.40625 255
120 -12 -109 -0.0078125 0.1484375 -0.9765625 255
227 -14 59 0.890625 -0.15625 0.390625 255
241 -34 0 0.953125 -0.25 0.0 255
237 64 0 0.984375 -0.0546875 -0.0078125 255
189 -102 73 0.625 -0.5390625 0.53125 255
189 -102 -71 0.625 -0.5546875 -0.5234375 255
200 -117 0 0.4921875 -0.8515625 0.0 255
248 104 -43 0.921875 0.34375 -0.1015625 255
231 81 33 0.8828125 0.3046875 0.328125 255
232 69 -34 0.890625 -0.21875 -0.3671875 255
201 125 -13 -0.21875 0.9609375 -0.0390625 255
160 96 0 -0.5703125 0.8046875 -0.015625 255
116 -124 -67 -0.03125 -0.8828125 -0.4375 255
145 -84 -104 -0.1328125 -0.3828125 -0.8984375 255
116 -126 68 -0.0390625 -0.8828125 0.4375 255
119 -134 0 -0.1875 -0.96875 -0.0078125 255
145 -83 105 -0.1328125 -0.375 0.8984375 255
64 -103 52 -0.1015625 -0.9140625 0.359375 255
64 -103 -51 -0.1015625 -0.9140625 -0.359375 255
91 -54 -85 -0.1875 -0.671875 -0.6953125 255
91 -54 86 -0.1796875 -0.6796875 0.6953125 255
31 -84 0 -0.75 -0.640625 0.0 255
36 -116 36 -0.0390625 -0.890625 -0.4296875 255
9 -88 59 -0.9453125 -0.2578125 0.0859375 255
56 -45 77 -0.2265625 -0.421875 0.859375 255
58 -114 60 0.6796875 -0.59375 0.390625 255
36 -116 -35 -0.0390625 -0.890625 0.4296875 255
56 -45 -76 -0.2265625 -0.421875 -0.859375 255
58 -114 -59 0.6796875 -0.59375 -0.390625 255
17 -52 -46 -0.9296875 -0.0625 -0.3203125 255
9 -88 -58 -0.9453125 -0.2578125 -0.0859375 255
17 -52 47 -0.9296875 -0.0625 0.3203125 255
35 -120 -67 -0.296875 -0.84375 -0.4140625 255
35 -120 68 -0.296875 -0.84375 0.4140625 255
31 -85 -86 -0.2890625 -0.0234375 -0.9453125 255
31 -85 87 -0.2890625 -0.0234375 0.9453125 255
3 0 1 2
3 3 4 5
3 3 6 7
3 3 7 4
3 8 4 9
3 7 10 4
3 4 10 9
3 8 5 4
3 11 1 12
3 1 0 12
3 1 13 2
3 1 11 14
3 13 1 14
3 15 2 13
3 16 0 2
3 17 18 19
3 18 17 20
3 17 7 20
3 10 7 17
3 19 10 17
3 21 15 18
3 22 18 20
3 22 21 18
3 15 19 18
3 15 13 19
3 19 23 24
3 10 19 24
3 21 2 15
3 13 14 25
3 13 25 19
3 14 11 26
3 11 27 26
3 21 28 29
3 2 21 29
3 28 21 22
3 22 20 30
3 31 22 30
3 31 28 22
3 32 30 20
3 32 20 7
3 26 9 23
3 9 24 23
3 25 14 23
3 14 26 23
3 19 25 23
3 10 24 9
3 9 26 8
3 26 27 8
3 33 34 31
3 32 7 6
3 34 28 31
3 29 28 34
3 2 29 16
3 35 29 34
3 29 35 16
3 33 30 32
3 36 32 6
3 33 32 36
3 33 31 30
3 37 38 39
3 37 34 33
3 33 36 40
3 37 33 38
3 41 33 40
3 41 38 33
3 37 42 34
3 43 35 34
3 42 44 34
3 43 34 44
3 37 45 46
3 39 47 37
3 46 42 37
3 42 48 44
3 46 48 42
3 38 49 39
3 41 49 38
3 48 50 44
3 50 48 46
3 44 50 43
3 45 43 50
3 50 46 45
3 51 40 47
3 40 51 41
3 47 39 51
3 39 49 51
3 51 49 41
