ply
format ascii 1.0
comment metarep (UNSM) - mario_h_hair0
element vertex 12
property short x
property short y
property short z
property float s
property float t
property float nx
property float ny
property float nz
property uchar alpha
element face 11
property list uchar uint vertex_indices
end_header
104 87 -69 -0.140625 0.107421875 0.375 0.71875 -0.5703125 255
97 103 -24 0.265625 0.037109375 0.5 0.703125 -0.4765625 255
144 83 -66 -0.126953125 0.53515625 0.1953125 0.7109375 -0.6484375 255
153 33 95 1.345703125 0.6953125 0.0390625 0.4375 0.8828125 255
175 91 39 0.837890625 0.875 0.0078125 0.9140625 0.3671875 255
144 83 67 1.09765625 0.56640625 0.1953125 0.7109375 0.6484375 255
145 101 0 0.484375 0.548828125 0.1484375 0.9765625 0.0 255
97 103 25 0.72265625 0.048828125 0.5 0.703125 0.4765625 255
175 91 -38 0.119140625 0.857421875 -0.0859375 0.8984375 -0.40625 255
104 87 70 1.126953125 0.140625 0.375 0.71875 0.5703125 255
153 33 -94 -0.37890625 0.650390625 -0.015625 0.421875 -0.890625 255
108 105 0 0.4921875 0.150390625 0.8203125 0.546875 0.0 255
3 0 1 2
3 3 4 5
3 4 6 7
3 8 6 4
3 5 4 7
3 7 9 5
3 2 8 10
3 1 6 8
3 1 8 2
3 6 11 7
3 1 11 6
