ply
format ascii 1.0
comment metarep (UNSM) - mario_h_hair1
element vertex 18
property short x
property short y
property short z
property float s
property float t
property float nx
property float ny
property float nz
property uchar alpha
element face 15
property list uchar uint vertex_indices
end_header
92 88 -83 0.984375 0.994140625 0.2734375 0.6953125 -0.6484375 255
77 108 -33 0.3671875 0.6953125 0.109375 0.171875 -0.96875 255
97 103 -24 0.306640625 0.96484375 0.5 0.703125 -0.4765625 255
48 94 -75 0.83984375 0.359375 -0.3203125 0.75 -0.5546875 255
44 44 -96 1.2578125 0.40625 -0.296875 0.2578125 -0.90625 255
52 111 -30 0.302734375 0.34375 -0.6875 0.390625 -0.5859375 255
92 88 84 0.94140625 0.9921875 0.2734375 0.6953125 0.6484375 255
77 108 34 0.337890625 0.67578125 0.109375 0.171875 0.96875 255
48 94 76 0.84375 0.369140625 -0.3203125 0.75 0.5546875 255
97 103 25 0.2578125 0.935546875 0.5 0.703125 0.4765625 255
52 111 31 0.30078125 0.330078125 -0.6875 0.3984375 0.5859375 255
44 44 97 1.26171875 0.431640625 -0.296875 0.2578125 0.90625 255
3 54 52 0.765625 -0.197265625 -0.8359375 0.2265625 0.46875 255
27 100 30 0.34375 0.001953125 -0.6171875 0.75 0.171875 255
3 54 -51 0.71875 -0.21484375 -0.8359375 0.2265625 -0.46875 255
41 109 0 -0.013671875 0.12890625 -0.8359375 0.53125 0.0 255
41 109 0 -0.021484375 0.15234375 -0.8359375 0.53125 0.0 255
27 100 -29 0.318359375 0.005859375 -0.6171875 0.75 -0.171875 255
3 0 1 2
3 3 1 0
3 0 4 3
3 3 5 1
3 6 7 8
3 7 6 9
3 7 10 8
3 8 11 6
3 12 8 13
3 13 8 10
3 14 3 4
3 13 10 15
3 16 5 17
3 5 3 17
3 17 3 14
