ply
format ascii 1.0
comment metarep (UNSM) - mario_h_larmR
element vertex 16
property short x
property short y
property short z
property float nx
property float ny
property float nz
element face 28
property list uchar uint vertex_indices
end_header
47 -15 -19 0.5078125 -0.3828125 -0.7578125
-3 -39 6 -0.34375 -0.921875 -0.0625
-2 -15 -23 -0.3203125 -0.2109375 -0.90625
46 -36 6 0.4921875 -0.84375 0.1171875
-2 -18 38 -0.328125 -0.3359375 0.8671875
47 -17 34 0.515625 -0.15625 0.828125
-1 18 28 -0.2890625 0.7265625 0.6015625
48 13 25 0.5390625 0.7265625 0.390625
-1 20 -9 -0.2890625 0.8046875 -0.4921875
48 15 -7 0.5390625 0.59375 -0.578125
-14 -28 6 -0.875 -0.4296875 -0.1328125
-14 -12 -13 -0.8671875 0.0078125 -0.4765625
-13 12 -4 -0.765625 0.5859375 -0.1953125
-13 10 21 -0.8984375 0.265625 0.3125
-14 -14 28 -0.796875 -0.3125 0.4921875
59 -8 7 0.9921875 -0.0234375 0.0
3 0 1 2
3 3 4 1
3 5 6 4
3 7 8 6
3 9 2 8
3 1 10 2
3 2 11 8
3 8 12 6
3 6 13 4
3 4 14 1
3 9 15 0
3 0 15 3
3 3 15 5
3 5 15 7
3 7 15 9
3 14 10 1
3 13 14 4
3 12 13 6
3 11 12 8
3 10 11 2
3 9 0 2
3 7 9 8
3 5 7 6
3 3 5 4
3 0 3 1
3 11 13 12
3 11 10 13
3 10 14 13
