ply
format ascii 1.0
comment metarep (UNSM) - mario_h_larmL
element vertex 16
property short x
property short y
property short z
property float nx
property float ny
property float nz
element face 28
property list uchar uint vertex_indices
end_header
-2 19 16 -0.2890625 0.7578125 0.5625
47 14 13 0.53125 0.53125 0.6328125
47 16 -19 0.5390625 0.7578125 -0.328125
-3 -17 26 -0.3203125 -0.2890625 0.8828125
46 -17 22 0.5078125 -0.4453125 0.71875
-3 -38 -4 -0.34375 -0.9296875 -0.015625
45 -34 -4 0.4921875 -0.8359375 -0.1875
-3 -14 -34 -0.3203125 -0.265625 -0.890625
46 -14 -30 0.515625 -0.09375 -0.8359375
-2 21 -21 -0.2890625 0.7734375 -0.5390625
-14 13 -15 -0.8515625 0.34375 -0.3515625
-14 11 10 -0.8515625 0.4609375 0.1953125
-15 -11 -24 -0.796875 -0.265625 -0.515625
-15 -27 -4 -0.9140625 -0.359375 0.078125
-15 -13 17 -0.7890625 -0.0390625 0.59375
58 -7 -3 0.984375 -0.03125 0.0
3 0 1 2
3 3 4 1
3 5 6 4
3 7 8 6
3 9 2 8
3 9 10 11
3 7 12 10
3 5 13 12
3 3 14 13
3 0 11 14
3 8 15 6
3 6 15 4
3 4 15 1
3 1 15 2
3 2 15 8
3 0 14 3
3 3 13 5
3 5 12 7
3 7 10 9
3 9 11 0
3 7 9 8
3 5 7 6
3 3 5 4
3 0 3 1
3 9 0 2
3 12 13 10
3 13 11 10
3 13 14 11
