ply
format ascii 1.0
comment metarep (UNSM) - mario_h_shoeR
element vertex 23
property short x
property short y
property short z
property float nx
property float ny
property float nz
element face 26
property list uchar uint vertex_indices
end_header
27 -35 -11 -0.28125 -0.9453125 0.046875
-36 11 19 -0.5859375 -0.3515625 0.7109375
-54 14 -10 -0.9296875 -0.328125 0.0234375
-34 11 -46 -0.59375 -0.375 -0.6875
43 -18 -55 0.078125 -0.609375 -0.7734375
80 -29 -7 0.421875 -0.890625 0.0625
44 -11 32 0.0078125 -0.5625 0.8125
-42 64 -29 -0.875 0.15625 -0.4296875
-40 63 5 -0.859375 0.1640625 0.4609375
-14 54 29 -0.3359375 -0.015625 0.9296875
-11 53 -56 -0.296875 -0.015625 -0.9453125
110 11 -36 0.609375 -0.625 -0.453125
78 22 -61 0.1796875 -0.3046875 -0.921875
109 11 20 0.5390625 -0.6328125 0.53125
75 23 40 0.0859375 -0.296875 0.9375
-42 64 -29 0.3203125 0.9296875 0.0
-40 63 5 0.3203125 0.9296875 0.0
-11 53 -56 0.3203125 0.9296875 0.0
-14 54 29 0.3203125 0.9296875 0.0
78 22 -61 0.3203125 0.9296875 0.0
75 23 40 0.3203125 0.9296875 0.0
110 11 -36 0.3203125 0.9296875 0.0
109 11 20 0.3203125 0.9296875 0.0
3 0 1 2
3 2 3 0
3 3 4 0
3 0 4 5
3 0 6 1
3 5 6 0
3 3 2 7
3 8 7 2
3 1 9 8
3 2 1 8
3 7 10 3
3 11 5 4
3 4 12 11
3 6 5 13
3 11 13 5
3 13 14 6
3 14 9 6
3 10 4 3
3 9 1 6
3 10 12 4
3 15 16 17
3 16 18 17
3 18 19 17
3 18 20 19
3 20 21 19
3 20 22 21
