ply
format ascii 1.0
comment metarep (UNSM) - mario_h_shinL
element vertex 12
property short x
property short y
property short z
property float nx
property float ny
property float nz
element face 20
property list uchar uint vertex_indices
end_header
4 -37 9 -0.4921875 -0.8515625 0.0
64 -46 9 0.5859375 -0.796875 0.0078125
65 -11 54 0.3515625 -0.2890625 0.875
8 44 33 -0.40625 0.734375 0.5234375
68 45 37 0.640625 0.5859375 0.46875
69 45 -18 0.515625 0.7578125 -0.3671875
9 44 -16 -0.46875 0.6015625 -0.6328125
66 -11 -36 0.359375 -0.296875 -0.8671875
6 -6 -31 -0.59375 -0.2109375 -0.7578125
6 -6 49 -0.6015625 -0.1953125 0.75
-14 8 8 -0.984375 0.046875 -0.0078125
81 3 9 0.984375 -0.046875 0.0078125
3 0 1 2
3 3 2 4
3 3 4 5
3 6 5 7
3 0 7 1
3 0 8 7
3 7 8 6
3 5 6 3
3 3 9 2
3 2 9 0
3 3 10 9
3 5 11 7
3 7 11 1
3 1 11 2
3 2 11 4
3 4 11 5
3 9 10 0
3 0 10 8
3 8 10 6
3 6 10 3
