ply
format ascii 1.0
comment metarep (UNSM) - mario_h_shoeL
element vertex 23
property short x
property short y
property short z
property float nx
property float ny
property float nz
element face 26
property list uchar uint vertex_indices
end_header
110 9 35 0.3359375 0.9296875 -0.0078125
110 8 -20 0.3359375 0.9296875 -0.0078125
76 20 -41 0.3359375 0.9296875 -0.0078125
78 21 61 0.3359375 0.9296875 -0.0078125
-12 53 -32 0.3359375 0.9296875 -0.0078125
-11 54 53 0.3359375 0.9296875 -0.0078125
-39 64 -8 0.3359375 0.9296875 -0.0078125
-41 65 26 0.3359375 0.9296875 -0.0078125
43 -18 54 0.0546875 -0.6015625 0.78125
78 21 61 0.1640625 -0.2890625 0.9296875
-11 54 53 -0.3046875 0.0 0.9375
44 -12 -33 0.0078125 -0.5703125 -0.8046875
-35 11 -21 -0.5859375 -0.359375 -0.7109375
-12 53 -32 -0.3203125 -0.0234375 -0.9296875
-34 12 44 -0.609375 -0.359375 0.6875
76 20 -41 0.09375 -0.3125 -0.9296875
110 8 -20 0.53125 -0.6484375 -0.515625
80 -31 7 0.40625 -0.8984375 -0.0390625
110 9 35 0.59375 -0.6328125 0.46875
-41 65 26 -0.875 0.1796875 0.4140625
-39 64 -8 -0.8515625 0.171875 -0.46875
-54 15 8 -0.9375 -0.3125 -0.0234375
27 -35 11 -0.2890625 -0.9453125 -0.03125
3 0 1 2
3 3 0 2
3 3 2 4
3 5 3 4
3 5 4 6
3 5 6 7
3 8 9 10
3 11 12 13
3 14 8 10
3 11 13 15
3 11 15 16
3 17 16 18
3 16 17 11
3 18 9 8
3 8 17 18
3 14 10 19
3 20 12 21
3 20 13 12
3 21 19 20
3 19 21 14
3 22 11 17
3 12 11 22
3 17 8 22
3 22 8 14
3 22 14 21
3 21 12 22
