ply
format ascii 1.0
comment metarep (UNSM) - mario_h_shinR
element vertex 22
property short x
property short y
property short z
property float nx
property float ny
property float nz
element face 20
property list uchar uint vertex_indices
end_header
63 -45 -12 -0.109375 -0.7890625 0.578125
66 -11 34 -0.109375 -0.7890625 0.578125
4 -36 -10 -0.5 -0.8515625 -0.015625
66 -11 34 -0.0390625 0.265625 0.953125
69 45 18 -0.03125 0.265625 0.953125
9 44 16 -0.453125 0.5859375 0.6484375
69 45 18 -0.0078125 0.9921875 0.0234375
69 46 -37 -0.0078125 0.9921875 0.0234375
9 46 -33 -0.3984375 0.75 -0.5
69 46 -37 -0.0703125 0.3046875 -0.9375
65 -9 -56 -0.0625 0.3125 -0.9375
65 -9 -56 -0.1328125 -0.75 -0.625
63 -45 -12 -0.1328125 -0.75 -0.625
6 -6 30 -0.59375 -0.21875 0.7578125
-13 10 -9 -0.984375 0.0625 0.015625
5 -3 -50 -0.609375 -0.171875 -0.75
65 -9 -56 0.9140625 -0.140625 -0.3359375
83 4 -10 0.984375 -0.0546875 -0.015625
63 -45 -12 0.9140625 -0.3671875 -0.0234375
66 -11 34 0.9296875 -0.15625 0.296875
69 45 18 0.953125 0.1875 0.1796875
69 46 -37 0.9453125 0.1953125 -0.203125
3 0 1 2
3 3 4 5
3 6 7 8
3 9 10 8
3 11 12 2
3 13 14 2
3 2 14 15
3 15 14 8
3 8 14 5
3 5 14 13
3 16 17 18
3 18 17 19
3 19 17 20
3 20 17 21
3 21 17 16
3 2 15 11
3 10 15 8
3 8 5 6
3 5 13 3
3 1 13 2
