ply
format ascii 1.0
comment metarep (UNSM) - mario_h_thighL
element vertex 17
property short x
property short y
property short z
property float nx
property float ny
property float nz
element face 30
property list uchar uint vertex_indices
end_header
1 -44 8 -0.6640625 -0.734375 0.0
-15 0 7 -0.984375 -0.0703125 -0.0078125
0 -13 -32 -0.7578125 -0.2421875 -0.5859375
-4 37 -17 -0.765625 0.375 -0.5
-5 37 31 -0.75 0.4921875 0.40625
-1 -12 47 -0.765625 -0.2265625 0.5703125
95 -5 48 0.609375 -0.1796875 0.75
116 10 8 0.984375 0.0703125 0.0078125
91 45 32 0.46875 0.609375 0.6171875
92 45 -16 0.4140625 0.7265625 -0.5234375
96 -5 -31 0.625 -0.1875 -0.7421875
98 -37 8 0.546875 -0.8203125 0.0078125
19 -15 -42 -0.15625 -0.3046875 -0.921875
14 48 -23 -0.3203125 0.8046875 -0.4609375
13 48 38 -0.1953125 0.8515625 0.453125
18 -15 58 -0.171875 -0.296875 0.921875
21 -54 8 -0.125 -0.9765625 0.0
3 0 1 2
3 2 1 3
3 3 1 4
3 4 1 5
3 6 7 8
3 8 7 9
3 9 7 10
3 10 7 11
3 11 7 6
3 12 3 13
3 13 4 14
3 14 4 15
3 15 0 16
3 16 0 12
3 5 1 0
3 15 16 11
3 14 15 8
3 13 14 9
3 12 13 9
3 16 12 11
3 12 10 11
3 9 10 12
3 14 8 9
3 15 6 8
3 11 6 15
3 0 2 12
3 15 5 0
3 4 5 15
3 13 3 4
3 12 2 3
