ply
format ascii 1.0
comment metarep (UNSM) - mario_h_thighR
element vertex 17
property short x
property short y
property short z
property float nx
property float ny
property float nz
element face 30
property list uchar uint vertex_indices
end_header
98 -35 -10 0.5546875 -0.8203125 -0.03125
19 -16 41 -0.140625 -0.328125 0.921875
22 -54 -9 -0.109375 -0.984375 -0.0234375
91 46 16 0.4140625 0.71875 0.53125
13 48 24 -0.328125 0.796875 0.484375
12 49 -37 -0.2109375 0.859375 -0.4296875
90 47 -32 0.4609375 0.625 -0.609375
18 -13 -58 -0.171875 -0.28125 -0.9296875
1 -44 -9 -0.6484375 -0.7421875 -0.0078125
-15 0 -7 -0.984375 -0.0859375 0.015625
-1 -11 -47 -0.7734375 -0.2265625 -0.5703125
-6 38 -31 -0.765625 0.4921875 -0.3828125
-5 36 18 -0.765625 0.3515625 0.515625
95 -3 -49 0.6015625 -0.15625 -0.765625
116 11 -9 0.984375 0.0859375 -0.015625
96 -5 30 0.6328125 -0.1953125 0.7265625
0 -14 31 -0.75 -0.2578125 0.5859375
3 0 1 2
3 3 4 1
3 3 5 4
3 6 7 5
3 0 2 7
3 8 9 10
3 1 8 2
3 2 8 7
3 7 11 5
3 5 11 4
3 4 12 1
3 13 14 0
3 0 14 15
3 15 14 3
3 3 14 6
3 6 14 13
3 10 9 11
3 11 9 12
3 12 9 16
3 16 9 8
3 12 16 1
3 11 12 4
3 7 10 11
3 8 10 7
3 1 16 8
3 7 13 0
3 6 13 7
3 3 6 5
3 1 15 3
3 0 15 1
