ply
format ascii 1.0
comment metarep (UNSM) - mario_h_torso0
element vertex 14
property short x
property short y
property short z
property float s
property float t
property float nx
property float ny
property float nz
property uchar alpha
element face 10
property list uchar uint vertex_indices
end_header
9 89 41 0.19140625 0.044921875 0.15625 0.9375 0.2734375 255
3 77 62 0.681640625 0.041015625 0.03125 0.828125 0.53125 255
47 75 35 0.048828125 0.880859375 0.4453125 0.828125 0.296875 255
28 85 30 -0.04296875 0.42578125 0.34375 0.921875 0.0625 255
17 66 76 0.958984375 0.408203125 0.1953125 0.6875 0.6796875 255
32 62 74 0.896484375 0.73828125 0.3203125 0.6484375 0.671875 255
48 64 59 0.55078125 0.984375 0.6015625 0.6328125 0.453125 255
9 89 -40 0.7734375 0.0859375 0.125 0.9609375 -0.1953125 255
28 85 -29 0.982421875 0.484375 0.3515625 0.9140625 -0.109375 255
47 75 -34 0.845703125 0.9140625 0.484375 0.828125 -0.234375 255
3 77 -61 0.2734375 0.03515625 0.0234375 0.828125 -0.5390625 255
48 64 -58 0.3203125 0.984375 0.6015625 0.625 -0.4609375 255
32 62 -73 -0.0078125 0.681640625 0.3203125 0.640625 -0.6796875 255
17 66 -75 -0.041015625 0.357421875 0.1796875 0.6875 -0.6875 255
3 0 1 2
3 2 3 0
3 1 4 2
3 5 6 2
3 4 5 2
3 7 8 9
3 10 7 9
3 9 11 12
3 12 13 9
3 13 10 9
