ply
format ascii 1.0
comment metarep (UNSM) - mario_h_torso2
element vertex 27
property short x
property short y
property short z
property float nx
property float ny
property float nz
property uchar alpha
element face 25
property list uchar uint vertex_indices
end_header
47 75 -34 0.484375 0.828125 -0.234375 255
47 75 35 0.4453125 0.828125 0.296875 255
82 37 27 0.796875 0.5625 0.15625 255
82 37 -26 0.8203125 0.5234375 -0.15625 255
100 1 24 0.953125 0.1796875 0.171875 255
100 1 -23 0.96875 0.0703125 -0.171875 255
6 -10 -92 0.0 -0.1640625 -0.9765625 255
47 3 -88 0.375 0.0703125 -0.9140625 255
46 -34 -83 0.28125 -0.4375 -0.8359375 255
12 33 -90 0.1328125 0.25 -0.9453125 255
20 -61 -67 0.078125 -0.796875 -0.5703125 255
66 -52 -50 0.4609375 -0.796875 -0.3515625 255
84 -29 -62 0.7421875 -0.265625 -0.59375 255
20 -61 68 0.078125 -0.8046875 0.5703125 255
66 -52 51 0.4609375 -0.796875 0.3515625 255
46 -34 84 0.28125 -0.4375 0.8359375 255
6 -11 93 0.0 -0.171875 0.96875 255
47 3 89 0.375 0.0625 0.9140625 255
84 -29 63 0.7421875 -0.265625 0.59375 255
13 33 91 0.140625 0.25 0.9453125 255
93 -36 26 0.8359375 -0.5078125 0.1015625 255
93 -36 -25 0.796875 -0.5703125 -0.125 255
54 -63 0 0.375 -0.9140625 0.0 255
80 14 62 0.75 0.3125 0.5546875 255
44 51 75 0.46875 0.40625 0.765625 255
80 14 -61 0.75 0.3125 -0.5625 255
43 51 -74 0.46875 0.390625 -0.7734375 255
3 0 1 2
3 0 2 3
3 4 3 2
3 4 5 3
3 6 7 8
3 6 9 7
3 6 8 10
3 11 8 12
3 12 8 7
3 8 11 10
3 13 14 15
3 13 15 16
3 15 17 16
3 17 15 18
3 18 15 14
3 19 16 17
3 5 4 20
3 5 20 21
3 22 21 20
3 23 17 18
3 24 17 23
3 19 17 24
3 25 7 26
3 12 7 25
3 7 9 26
