ply
format ascii 1.0
comment metarep (UNSM) - mario_h_torso1
element vertex 57
property short x
property short y
property short z
property float nx
property float ny
property float nz
property uchar alpha
element face 83
property list uchar uint vertex_indices
end_header
47 75 -34 0.484375 0.828125 -0.234375 255
28 85 30 0.34375 0.921875 0.0625 255
47 75 35 0.4453125 0.828125 0.296875 255
28 85 -29 0.3515625 0.9140625 -0.109375 255
9 89 41 0.15625 0.9375 0.2734375 255
9 89 -40 0.125 0.9609375 -0.1953125 255
-15 88 35 -0.15625 0.953125 0.21875 255
-15 87 -35 -0.171875 0.921875 -0.296875 255
3 77 -61 0.0234375 0.828125 -0.5390625 255
-43 83 -24 -0.40625 0.890625 -0.140625 255
-28 63 -74 -0.3671875 0.6171875 -0.671875 255
-40 72 -54 -0.4609375 0.7421875 -0.453125 255
-40 72 55 -0.46875 0.734375 0.453125 255
-43 83 25 -0.53125 0.8203125 0.1328125 255
-28 63 75 -0.375 0.625 0.6640625 255
80 14 -61 0.75 0.3125 -0.5625 255
43 51 -74 0.46875 0.390625 -0.7734375 255
48 64 -58 0.6015625 0.625 -0.4609375 255
3 77 62 0.03125 0.828125 0.53125 255
48 64 59 0.6015625 0.6328125 0.453125 255
82 37 27 0.796875 0.5625 0.15625 255
32 62 74 0.3203125 0.6484375 0.671875 255
44 51 75 0.46875 0.40625 0.765625 255
80 14 62 0.75 0.3125 0.5546875 255
100 1 24 0.953125 0.1796875 0.171875 255
82 37 -26 0.8203125 0.5234375 -0.15625 255
32 62 -73 0.3203125 0.640625 -0.6796875 255
100 1 -23 0.96875 0.0703125 -0.171875 255
20 -61 -67 0.078125 -0.796875 -0.5703125 255
66 -52 -50 0.4609375 -0.796875 -0.3515625 255
54 -63 0 0.375 -0.9140625 0.0 255
-27 -25 -86 -0.4140625 -0.3359375 -0.828125 255
6 -10 -92 0.0 -0.1640625 -0.9765625 255
-29 -58 -59 -0.4296875 -0.796875 -0.3828125 255
8 -74 0 -0.0234375 -0.984375 0.0 255
-59 -28 -37 -0.875 -0.3359375 -0.3046875 255
-30 -66 0 -0.5625 -0.8125 0.0 255
-27 26 -89 -0.4453125 0.1171875 -0.875 255
12 33 -90 0.1328125 0.25 -0.9453125 255
20 -61 68 0.078125 -0.8046875 0.5703125 255
66 -52 51 0.4609375 -0.796875 0.3515625 255
-29 -58 59 -0.4375 -0.8046875 0.375 255
-27 -25 87 -0.4140625 -0.3515625 0.8203125 255
6 -11 93 0.0 -0.171875 0.96875 255
-27 26 91 -0.4375 0.109375 0.875 255
13 33 91 0.140625 0.25 0.9453125 255
-59 -28 38 -0.8984375 -0.3125 0.2578125 255
-71 54 -29 -0.8828125 0.328125 -0.296875 255
-71 54 30 -0.84375 0.328125 0.3828125 255
-4 58 84 -0.0390625 0.5234375 0.8359375 255
-4 58 -82 -0.0546875 0.515625 -0.84375 255
84 -29 -62 0.7421875 -0.265625 -0.59375 255
93 -36 -25 0.796875 -0.5703125 -0.125 255
93 -36 26 0.8359375 -0.5078125 0.1015625 255
84 -29 63 0.7421875 -0.265625 0.59375 255
17 66 -75 0.1796875 0.6875 -0.6875 255
17 66 76 0.1953125 0.6875 0.6796875 255
3 0 1 2
3 0 3 1
3 4 1 5
3 1 3 5
3 4 5 6
3 5 7 6
3 7 5 8
3 9 6 7
3 7 8 10
3 10 11 7
3 9 7 11
3 12 6 13
3 9 13 6
3 6 12 14
3 15 16 17
3 18 4 6
3 2 19 20
3 21 22 19
3 19 22 23
3 23 20 19
3 24 20 23
3 25 15 17
3 17 16 26
3 17 0 25
3 15 25 27
3 28 29 30
3 28 31 32
3 28 33 31
3 30 34 28
3 33 28 34
3 31 33 35
3 36 35 33
3 34 36 33
3 31 37 32
3 37 31 35
3 32 37 38
3 39 30 40
3 39 34 30
3 34 39 41
3 41 39 42
3 39 43 42
3 44 43 45
3 43 44 42
3 41 42 46
3 46 42 44
3 36 41 46
3 41 36 34
3 10 37 47
3 35 47 37
3 47 46 48
3 13 9 47
3 47 9 11
3 47 35 46
3 11 10 47
3 13 47 48
3 46 35 36
3 44 48 46
3 48 14 12
3 12 13 48
3 44 45 49
3 14 44 49
3 48 44 14
3 37 50 38
3 37 10 50
3 15 27 51
3 27 52 51
3 51 52 29
3 30 29 52
3 40 53 54
3 54 53 24
3 23 54 24
3 53 40 30
3 55 50 8
3 10 8 50
3 21 56 45
3 14 49 18
3 6 14 18
3 18 49 56
3 56 49 45
3 38 50 55
3 38 26 16
3 45 22 21
3 38 55 26
