ply
format ascii 1.0
comment metarep (UNSM) - mario_h_uarmR
element vertex 20
property short x
property short y
property short z
property float nx
property float ny
property float nz
element face 36
property list uchar uint vertex_indices
end_header
57 -14 -22 0.3984375 -0.3828125 -0.8203125
5 -44 5 -0.3515625 -0.921875 -0.0703125
6 -15 -30 -0.328125 -0.203125 -0.90625
57 -38 6 0.484375 -0.8515625 0.0546875
6 -19 44 -0.3359375 -0.34375 0.859375
57 -17 37 0.3984375 -0.1875 0.8828125
7 25 32 -0.3046875 0.71875 0.6015625
58 17 27 0.53125 0.6953125 0.4453125
7 27 -13 -0.296875 0.8046875 -0.484375
58 19 -9 0.484375 0.578125 -0.6328125
-9 -28 6 -0.828125 -0.5078125 -0.15625
-9 -10 -15 -0.8828125 0.0078125 -0.4453125
-8 15 -5 -0.8671875 0.4453125 -0.1484375
-8 14 22 -0.8046875 0.359375 0.4375
-9 -13 30 -0.921875 -0.1796875 0.296875
67 -12 -13 0.8125 -0.1640625 -0.53125
67 -14 28 0.8671875 -0.1875 0.4296875
67 11 -4 0.9375 0.296875 -0.1171875
67 10 21 0.8828125 0.328125 0.2890625
66 -28 6 0.9140625 -0.3671875 -0.015625
3 0 1 2
3 3 4 1
3 5 6 4
3 7 8 6
3 9 2 8
3 1 10 2
3 2 11 8
3 8 12 6
3 6 13 4
3 4 14 1
3 9 15 0
3 0 15 3
3 3 16 5
3 5 16 7
3 7 17 9
3 7 18 17
3 16 18 7
3 3 19 16
3 15 19 3
3 9 17 15
3 14 10 1
3 13 14 4
3 12 13 6
3 11 12 8
3 10 11 2
3 9 0 2
3 7 9 8
3 5 7 6
3 3 5 4
3 0 3 1
3 15 17 19
3 11 10 14
3 14 12 11
3 14 13 12
3 17 16 19
3 17 18 16
