ply
format ascii 1.0
comment metarep (UNSM) - mario_h_uarmL
element vertex 20
property short x
property short y
property short z
property float nx
property float ny
property float nz
element face 36
property list uchar uint vertex_indices
end_header
7 27 20 -0.296875 0.7578125 0.5546875
59 20 15 0.53125 0.578125 0.59375
59 21 -21 0.4296875 0.8046875 -0.375
6 -16 32 -0.3359375 -0.28125 0.8828125
58 -15 25 0.390625 -0.453125 0.78125
5 -42 -5 -0.3515625 -0.921875 -0.0078125
57 -36 -5 0.484375 -0.8515625 -0.1328125
6 -13 -42 -0.328125 -0.265625 -0.890625
58 -13 -34 0.4609375 -0.0390625 -0.875
7 29 -26 -0.296875 0.765625 -0.5390625
-8 17 -17 -0.875 0.328125 -0.328125
-8 16 10 -0.796875 0.53125 0.2265625
-8 -9 -27 -0.890625 -0.1875 -0.390625
-9 -26 -5 -0.828125 -0.5234375 0.109375
-8 -11 18 -0.9140625 -0.0078125 0.3671875
68 13 -16 0.828125 0.4375 -0.3046875
68 -10 -25 0.9140625 -0.1953125 -0.3046875
68 12 9 0.9375 0.2421875 0.2109375
67 -12 16 0.8671875 -0.1875 0.4296875
67 -26 -5 0.859375 -0.484375 -0.015625
3 0 1 2
3 3 4 1
3 5 6 4
3 7 8 6
3 9 2 8
3 9 10 11
3 7 12 10
3 5 13 12
3 3 14 13
3 0 11 14
3 15 16 8
3 1 17 15
3 18 17 1
3 6 19 18
3 16 19 6
3 8 16 6
3 6 18 4
3 4 18 1
3 1 15 2
3 2 15 8
3 0 14 3
3 3 13 5
3 5 12 7
3 7 10 9
3 9 11 0
3 7 9 8
3 5 7 6
3 3 5 4
3 0 3 1
3 9 0 2
3 14 11 10
3 17 16 15
3 17 18 16
3 18 19 16
3 10 12 14
3 12 13 14
