ply
format ascii 1.0
comment metarep (UNSM) - mario_h_waist
element vertex 38
property short x
property short y
property short z
property float nx
property float ny
property float nz
element face 72
property list uchar uint vertex_indices
end_header
-9 73 -34 -0.484375 0.8359375 -0.203125
-9 73 34 -0.515625 0.828125 0.140625
22 82 -26 0.0546875 0.984375 -0.0859375
73 11 0 0.984375 0.03125 0.0
55 -61 -36 0.8046875 -0.515625 -0.2421875
44 -10 -92 0.6171875 -0.109375 -0.765625
7 33 95 -0.203125 0.296875 0.9140625
44 -9 92 0.6171875 -0.109375 0.765625
43 40 91 0.609375 0.375 0.6796875
8 -8 -99 -0.1015625 -0.140625 -0.96875
36 -51 -79 0.375 -0.5625 -0.71875
26 -74 -46 0.1875 -0.9375 -0.234375
36 -52 79 0.375 -0.5625 0.71875
26 -74 45 0.140625 -0.9375 0.265625
55 -61 36 0.75 -0.6015625 0.203125
-5 59 72 -0.5 0.640625 0.5546875
-32 40 39 -0.9140625 0.2890625 0.2265625
52 70 38 0.6484375 0.7265625 0.171875
22 82 26 0.0546875 0.9765625 0.1328125
27 72 63 0.046875 0.84375 0.515625
43 40 -91 0.609375 0.375 -0.6796875
27 72 -63 0.0546875 0.8359375 -0.515625
52 70 -39 0.6953125 0.671875 -0.2109375
-5 59 -72 -0.5 0.640625 -0.5546875
-17 32 -79 -0.71875 0.2734375 -0.6171875
-32 40 -39 -0.9296875 0.2890625 -0.1640625
-14 -74 0 -0.4140625 -0.8984375 0.0
-9 -69 55 -0.3984375 -0.8203125 0.375
-31 -51 42 -0.8984375 -0.3203125 0.2421875
-9 -69 -55 -0.3984375 -0.8203125 -0.375
4 -48 -86 -0.3125 -0.546875 -0.7578125
4 -49 86 -0.3125 -0.5546875 0.7578125
6 33 -95 -0.203125 0.296875 -0.9140625
-31 -51 -42 -0.8671875 -0.375 -0.28125
-18 32 79 -0.71875 0.2734375 0.6171875
8 -8 99 -0.1015625 -0.1328125 0.96875
-20 -7 81 -0.7265625 -0.0546875 0.6640625
-20 -8 -81 -0.7265625 -0.0625 -0.6640625
3 0 1 2
3 3 4 5
3 6 7 8
3 9 5 10
3 4 11 10
3 12 13 14
3 15 1 16
3 17 18 19
3 20 21 22
3 23 24 25
3 3 17 8
3 20 22 3
3 26 27 28
3 11 29 30
3 31 27 13
3 16 1 25
3 19 1 15
3 22 2 17
3 32 21 20
3 28 33 26
3 33 29 26
3 3 5 20
3 17 3 22
3 8 7 3
3 6 8 19
3 23 0 21
3 25 0 23
3 16 34 15
3 21 2 22
3 19 8 17
3 35 12 7
3 32 20 5
3 7 12 14
3 34 6 15
3 36 35 6
3 31 35 36
3 37 9 30
3 32 9 37
3 23 32 24
3 37 24 32
3 6 34 36
3 25 24 37
3 14 3 7
3 3 14 4
3 4 10 5
3 5 9 32
3 35 31 12
3 0 2 21
3 19 15 6
3 32 23 21
3 2 18 17
3 19 18 1
3 1 0 25
3 13 12 31
3 30 10 11
3 36 34 16
3 10 30 9
3 6 35 7
3 1 18 2
3 30 29 33
3 37 30 33
3 28 27 31
3 31 36 28
3 36 16 28
3 28 16 25
3 25 37 33
3 25 33 28
3 14 13 11
3 13 26 11
3 13 27 26
3 26 29 11
3 11 4 14
